<svg width="17" height="16" viewBox="0 0 17 16" fill="none" xmlns="http://www.w3.org/2000/svg">
<rect width="15.9583" height="16" transform="translate(0.131287)" fill="#171717"/>
<path fill-rule="evenodd" clip-rule="evenodd" d="M2.62477 13.5H6.86368V15H2.12607C1.57523 15 1.12868 14.5523 1.12868 14V2C1.12868 1.44771 1.57523 1 2.12607 1H6.86368V2.5H2.62477V13.5ZM12.5381 7.24999L10.5737 5.28031L10.0447 4.74998L11.1026 3.68932L11.6315 4.21965L14.6968 7.29288C15.0863 7.6834 15.0863 8.31657 14.6968 8.70709L11.6315 11.7803L11.1026 12.3106L10.0447 11.25L10.5737 10.7197L12.5381 8.74999H5.86629H5.11824V7.24999H5.86629H12.5381Z" fill="white"/>
</svg>
